<svg id="b479c5b8-d791-41ad-baf7-7ab9730b3736" data-name="Layer 1" xmlns="http://www.w3.org/2000/svg" viewBox="0 0 4121.8 1076.76"><defs><style>.\33 dabc866-bb2f-4bd0-99aa-4ae324908e07,.e5c8b07d-2a42-48de-a79d-693ca8682365{fill:#ff383f;}.\33 dabc866-bb2f-4bd0-99aa-4ae324908e07{font-size:700px;font-family:JuliusSansOne-Regular, Julius Sans One;letter-spacing:-0.05em;}.f87662e9-27c4-4a9d-b0d4-8e5c7c6899ec{letter-spacing:-0.12em;}.\33 962e7fd-0e76-44b0-8546-727a67ea86c8{letter-spacing:-0.01em;}</style></defs><title>logo</title><path class="e5c8b07d-2a42-48de-a79d-693ca8682365" d="M468.57-132.81l-78.09-46.56c-13-32.3-32.29-54.11-49.55-73.36L339-254.92c-41.1-45.94-86.71-67.48-135.73-64.07-61.82,4.32-123.79,48.89-179.78,128.85-11.79-4.81-23.64-9.43-35.43-14-94.51-36.71-183.79-71.38-235.26-211.77l-21.07-57.47-7.35,60.78c-7.4,61.17-8.68,114-5.24,160.09-19.49-22.65-35.91-49.44-49.52-81.24L-352-384.05l-6.56,54.34C-396.75-13.53-246.46,54.66-113.86,114.83c.09,0,.16.06.24.1-13.21,50.06-20.46,118.9-27.48,185.71-3.35,31.91-7.15,68.09-11.93,101.62-6.37,1-12.63,2-18.75,2.92-52.23,8-90,13.77-100.62,39.21-8.79,21,7.36,43.35,12.67,50.7,16.44,22.79,40.55,51.53,67.31,51.53a37,37,0,0,0,9.58-1.26c29.64-7.89,44.65-49.17,55.73-117.59,23.29-4.12,47.75-9.38,72.23-17.15C155.7,343.82,195.9,196.3,231.38,66.16c24.86-91.22,46.7-171.24,124.14-208.74C377.79-151.08,468.57-132.81,468.57-132.81Zm-659,649.74c-6.94,1.85-22.63-7.4-45.47-39.05-11.23-15.57-9.79-21.16-9.38-22.12,4.28-10.21,45.13-16.47,77.94-21.5l9.48-1.46C-165.73,478-176.06,513.1-190.4,516.93ZM-333.92-275.82a293.8,293.8,0,0,0,58.61,70.76C-249.75-47.67-162,20.18-82,81.88c17.36,13.39,34.19,26.39,49.83,39.88-22.34-12.3-46-23.06-69.5-33.73C-223.4,32.81-349-24.16-333.92-275.82Zm270.17,658.4A508.74,508.74,0,0,1-122.58,397c3.72-27.72,7.12-58.92,10.74-93.32,6.66-63.51,13.55-128.88,25.39-176.31C-4,165.89,62.33,207.15,60.84,319.69,28.49,344.7-12,366.17-63.75,382.58ZM89.74,294.39c-7-122.5-78.44-177.68-153.81-235.81-100.42-77.47-204-157.4-187.6-411.76,58,110,144.78,143.73,229.07,176.47,94.14,36.57,183.08,71.13,232,211.64Q206.21,46.6,203,58.41C180.16,142.14,156.8,227.71,89.74,294.39ZM223-10.56C180.56-104.94,117.66-148,51.07-178.27,100.25-246.7,154.6-286.09,205.31-289.64c39.41-2.81,77,15.52,111.75,54.34l2,2.18c14.71,16.42,29.84,33.32,40.78,56.62C280.53-146.42,246.77-83.51,223-10.56Z" transform="translate(364.57 473.36)"/><text class="3dabc866-bb2f-4bd0-99aa-4ae324908e07" transform="translate(991.43 901.21) scale(1 1.1)">F<tspan class="f87662e9-27c4-4a9d-b0d4-8e5c7c6899ec" x="352.1" y="0">L</tspan><tspan class="3962e7fd-0e76-44b0-8546-727a67ea86c8" x="638.4" y="0">Y</tspan><tspan x="1068.19" y="0" xml:space="preserve"> HIGH</tspan></text></svg>