<svg id="d5e008c4-39f7-4f49-9f0e-155595e474be" data-name="Layer 1" xmlns="http://www.w3.org/2000/svg" viewBox="0 0 833.15 1019.98"><defs><style>.c606a27e-4571-4af1-903d-c2406a2a6018{fill:#ff383f;opacity:0.25;}</style></defs><title>logo-filled</title><path class="c606a27e-4571-4af1-903d-c2406a2a6018" d="M468.57-132.81l-78.09-46.56c-13-32.3-32.29-54.11-49.55-73.36L339-254.92c-41.1-45.94-86.71-67.48-135.73-64.07-61.82,4.32-123.79,48.89-179.78,128.85-11.79-4.81-23.64-9.43-35.43-14-94.51-36.71-183.79-71.38-235.26-211.77l-21.07-57.47-7.35,60.78c-7.4,61.17-8.68,114-5.24,160.09-19.49-22.65-35.91-49.44-49.52-81.24L-352-384.05l-6.56,54.34C-396.75-13.53-246.46,54.66-113.86,114.83c.09,0,.16.06.24.1-13.21,50.06-20.46,118.9-27.48,185.71-3.35,31.91-7.15,68.09-11.93,101.62-6.37,1-12.63,2-18.75,2.92-52.23,8-90,13.77-100.62,39.21-8.79,21,7.36,43.35,12.67,50.7,16.44,22.79,40.55,51.53,67.31,51.53a37,37,0,0,0,9.58-1.26c29.64-7.89,44.65-49.17,55.73-117.59,23.29-4.12,47.75-9.38,72.23-17.15C155.7,343.82,195.9,196.3,231.38,66.16c24.86-91.22,46.7-171.24,124.14-208.74C377.79-151.08,468.57-132.81,468.57-132.81Z" transform="translate(364.57 473.36)"/></svg>